<mxfile host="Electron" modified="2024-07-31T17:21:19.480Z" agent="Mozilla/5.0 (Windows NT 10.0; Win64; x64) AppleWebKit/537.36 (KHTML, like Gecko) draw.io/23.1.5 Chrome/120.0.6099.109 Electron/28.1.0 Safari/537.36" etag="b4tYgXOh9KYgfA38We0V" version="23.1.5" type="device">
  <diagram id="C5RBs43oDa-KdzZeNtuy" name="Page-1">
    <mxGraphModel dx="4160" dy="3247" grid="1" gridSize="10" guides="1" tooltips="1" connect="1" arrows="1" fold="1" page="1" pageScale="1" pageWidth="827" pageHeight="1169" math="0" shadow="0">
      <root>
        <mxCell id="WIyWlLk6GJQsqaUBKTNV-0" />
        <mxCell id="WIyWlLk6GJQsqaUBKTNV-1" parent="WIyWlLk6GJQsqaUBKTNV-0" />
        <mxCell id="E8jhZmFo8gNS69suOHck-0" value="User Launches Streamlit App" style="whiteSpace=wrap;strokeWidth=2;" vertex="1" parent="WIyWlLk6GJQsqaUBKTNV-1">
          <mxGeometry x="-243" y="-1169" width="220" height="33" as="geometry" />
        </mxCell>
        <mxCell id="E8jhZmFo8gNS69suOHck-1" value="Set Page Config" style="whiteSpace=wrap;strokeWidth=2;" vertex="1" parent="WIyWlLk6GJQsqaUBKTNV-1">
          <mxGeometry x="-196" y="-1086" width="126" height="33" as="geometry" />
        </mxCell>
        <mxCell id="E8jhZmFo8gNS69suOHck-2" value="Create Database Connection" style="whiteSpace=wrap;strokeWidth=2;" vertex="1" parent="WIyWlLk6GJQsqaUBKTNV-1">
          <mxGeometry x="-243" y="-1002" width="219" height="33" as="geometry" />
        </mxCell>
        <mxCell id="E8jhZmFo8gNS69suOHck-3" value="Select Year" style="whiteSpace=wrap;strokeWidth=2;" vertex="1" parent="WIyWlLk6GJQsqaUBKTNV-1">
          <mxGeometry x="-181" y="-919" width="95" height="33" as="geometry" />
        </mxCell>
        <mxCell id="E8jhZmFo8gNS69suOHck-4" value="Selected Year != &#39;Select...&#39;" style="rhombus;strokeWidth=2;whiteSpace=wrap;" vertex="1" parent="WIyWlLk6GJQsqaUBKTNV-1">
          <mxGeometry x="-251" y="-835" width="236" height="236" as="geometry" />
        </mxCell>
        <mxCell id="E8jhZmFo8gNS69suOHck-5" value="Fetch Bank Names for Year" style="whiteSpace=wrap;strokeWidth=2;" vertex="1" parent="WIyWlLk6GJQsqaUBKTNV-1">
          <mxGeometry x="-368" y="-531" width="208" height="33" as="geometry" />
        </mxCell>
        <mxCell id="E8jhZmFo8gNS69suOHck-6" value="Select Bank" style="whiteSpace=wrap;strokeWidth=2;" vertex="1" parent="WIyWlLk6GJQsqaUBKTNV-1">
          <mxGeometry x="-314" y="-447" width="99" height="33" as="geometry" />
        </mxCell>
        <mxCell id="E8jhZmFo8gNS69suOHck-7" value="Selected Bank != &#39;Select...&#39;" style="rhombus;strokeWidth=2;whiteSpace=wrap;" vertex="1" parent="WIyWlLk6GJQsqaUBKTNV-1">
          <mxGeometry x="-384" y="-364" width="240" height="240" as="geometry" />
        </mxCell>
        <mxCell id="E8jhZmFo8gNS69suOHck-8" value="Select Report Type" style="whiteSpace=wrap;strokeWidth=2;" vertex="1" parent="WIyWlLk6GJQsqaUBKTNV-1">
          <mxGeometry x="-455" y="-55" width="149" height="33" as="geometry" />
        </mxCell>
        <mxCell id="E8jhZmFo8gNS69suOHck-9" value="Report Type == &#39;Overall&#39;" style="rhombus;strokeWidth=2;whiteSpace=wrap;" vertex="1" parent="WIyWlLk6GJQsqaUBKTNV-1">
          <mxGeometry x="-765" y="95" width="216" height="216" as="geometry" />
        </mxCell>
        <mxCell id="E8jhZmFo8gNS69suOHck-10" value="Fetch Overall Loan Data" style="whiteSpace=wrap;strokeWidth=2;" vertex="1" parent="WIyWlLk6GJQsqaUBKTNV-1">
          <mxGeometry x="-890" y="447" width="188" height="33" as="geometry" />
        </mxCell>
        <mxCell id="E8jhZmFo8gNS69suOHck-11" value="Summarize Data" style="whiteSpace=wrap;strokeWidth=2;" vertex="1" parent="WIyWlLk6GJQsqaUBKTNV-1">
          <mxGeometry x="-862" y="530" width="131" height="33" as="geometry" />
        </mxCell>
        <mxCell id="E8jhZmFo8gNS69suOHck-12" value="Format Summary" style="whiteSpace=wrap;strokeWidth=2;" vertex="1" parent="WIyWlLk6GJQsqaUBKTNV-1">
          <mxGeometry x="-865" y="614" width="137" height="33" as="geometry" />
        </mxCell>
        <mxCell id="E8jhZmFo8gNS69suOHck-13" value="Fetch Assessment Areas" style="whiteSpace=wrap;strokeWidth=2;" vertex="1" parent="WIyWlLk6GJQsqaUBKTNV-1">
          <mxGeometry x="-888" y="697" width="183" height="33" as="geometry" />
        </mxCell>
        <mxCell id="E8jhZmFo8gNS69suOHck-14" value="Generate Overall Tables" style="whiteSpace=wrap;strokeWidth=2;" vertex="1" parent="WIyWlLk6GJQsqaUBKTNV-1">
          <mxGeometry x="-890" y="780" width="187" height="33" as="geometry" />
        </mxCell>
        <mxCell id="E8jhZmFo8gNS69suOHck-15" value="Display Tables" style="whiteSpace=wrap;strokeWidth=2;" vertex="1" parent="WIyWlLk6GJQsqaUBKTNV-1">
          <mxGeometry x="-854" y="864" width="115" height="33" as="geometry" />
        </mxCell>
        <mxCell id="E8jhZmFo8gNS69suOHck-16" value="Show Disclaimer" style="whiteSpace=wrap;strokeWidth=2;" vertex="1" parent="WIyWlLk6GJQsqaUBKTNV-1">
          <mxGeometry x="-862" y="947" width="132" height="33" as="geometry" />
        </mxCell>
        <mxCell id="E8jhZmFo8gNS69suOHck-17" value="Export Report" style="whiteSpace=wrap;strokeWidth=2;" vertex="1" parent="WIyWlLk6GJQsqaUBKTNV-1">
          <mxGeometry x="-853" y="1031" width="114" height="33" as="geometry" />
        </mxCell>
        <mxCell id="E8jhZmFo8gNS69suOHck-18" value="Report Type == &#39;Custom Reports by Region&#39;" style="rhombus;strokeWidth=2;whiteSpace=wrap;" vertex="1" parent="WIyWlLk6GJQsqaUBKTNV-1">
          <mxGeometry x="-279" y="28" width="350" height="350" as="geometry" />
        </mxCell>
        <mxCell id="E8jhZmFo8gNS69suOHck-19" value="Fetch Assessment Areas" style="whiteSpace=wrap;strokeWidth=2;" vertex="1" parent="WIyWlLk6GJQsqaUBKTNV-1">
          <mxGeometry x="-334" y="447" width="183" height="33" as="geometry" />
        </mxCell>
        <mxCell id="E8jhZmFo8gNS69suOHck-20" value="Select Assessment Area" style="whiteSpace=wrap;strokeWidth=2;" vertex="1" parent="WIyWlLk6GJQsqaUBKTNV-1">
          <mxGeometry x="-332" y="530" width="181" height="33" as="geometry" />
        </mxCell>
        <mxCell id="E8jhZmFo8gNS69suOHck-21" value="Select Tables/Graphs" style="whiteSpace=wrap;strokeWidth=2;" vertex="1" parent="WIyWlLk6GJQsqaUBKTNV-1">
          <mxGeometry x="-325" y="614" width="166" height="33" as="geometry" />
        </mxCell>
        <mxCell id="E8jhZmFo8gNS69suOHck-22" value="Generate Selected Tables/Graphs" style="whiteSpace=wrap;strokeWidth=2;" vertex="1" parent="WIyWlLk6GJQsqaUBKTNV-1">
          <mxGeometry x="-370" y="697" width="255" height="33" as="geometry" />
        </mxCell>
        <mxCell id="E8jhZmFo8gNS69suOHck-23" value="Display Tables/Graphs" style="whiteSpace=wrap;strokeWidth=2;" vertex="1" parent="WIyWlLk6GJQsqaUBKTNV-1">
          <mxGeometry x="-328" y="780" width="173" height="33" as="geometry" />
        </mxCell>
        <mxCell id="E8jhZmFo8gNS69suOHck-24" value="Show Disclaimer" style="whiteSpace=wrap;strokeWidth=2;" vertex="1" parent="WIyWlLk6GJQsqaUBKTNV-1">
          <mxGeometry x="-308" y="864" width="132" height="33" as="geometry" />
        </mxCell>
        <mxCell id="E8jhZmFo8gNS69suOHck-25" value="Export Report" style="whiteSpace=wrap;strokeWidth=2;" vertex="1" parent="WIyWlLk6GJQsqaUBKTNV-1">
          <mxGeometry x="-299" y="947" width="114" height="33" as="geometry" />
        </mxCell>
        <mxCell id="E8jhZmFo8gNS69suOHck-26" value="Wait for User to Select Year" style="whiteSpace=wrap;strokeWidth=2;" vertex="1" parent="WIyWlLk6GJQsqaUBKTNV-1">
          <mxGeometry x="-110" y="-531" width="215" height="33" as="geometry" />
        </mxCell>
        <mxCell id="E8jhZmFo8gNS69suOHck-27" value="Wait for User to Select Bank" style="whiteSpace=wrap;strokeWidth=2;" vertex="1" parent="WIyWlLk6GJQsqaUBKTNV-1">
          <mxGeometry x="-257" y="-55" width="219" height="33" as="geometry" />
        </mxCell>
        <mxCell id="E8jhZmFo8gNS69suOHck-28" value="Wait for User to Select Report Type" style="whiteSpace=wrap;strokeWidth=2;" vertex="1" parent="WIyWlLk6GJQsqaUBKTNV-1">
          <mxGeometry x="-652" y="447" width="269" height="33" as="geometry" />
        </mxCell>
        <mxCell id="E8jhZmFo8gNS69suOHck-29" value="Wait for User to Select Report Type" style="whiteSpace=wrap;strokeWidth=2;" vertex="1" parent="WIyWlLk6GJQsqaUBKTNV-1">
          <mxGeometry x="-100" y="447" width="269" height="33" as="geometry" />
        </mxCell>
        <mxCell id="E8jhZmFo8gNS69suOHck-30" value="" style="curved=1;startArrow=none;endArrow=block;exitX=0.49836828058416194;exitY=1.0121212583599668;entryX=0.49715096609933035;entryY=0.012121258359966856;rounded=0;" edge="1" parent="WIyWlLk6GJQsqaUBKTNV-1" source="E8jhZmFo8gNS69suOHck-0" target="E8jhZmFo8gNS69suOHck-1">
          <mxGeometry relative="1" as="geometry">
            <Array as="points" />
          </mxGeometry>
        </mxCell>
        <mxCell id="E8jhZmFo8gNS69suOHck-31" value="" style="curved=1;startArrow=none;endArrow=block;exitX=0.49715096609933035;exitY=1.0242425167199336;entryX=0.5006439348334046;entryY=-0.006060513583096591;rounded=0;" edge="1" parent="WIyWlLk6GJQsqaUBKTNV-1" source="E8jhZmFo8gNS69suOHck-1" target="E8jhZmFo8gNS69suOHck-2">
          <mxGeometry relative="1" as="geometry">
            <Array as="points" />
          </mxGeometry>
        </mxCell>
        <mxCell id="E8jhZmFo8gNS69suOHck-32" value="" style="curved=1;startArrow=none;endArrow=block;exitX=0.5006439348334046;exitY=1.0060607447768704;entryX=0.5014844392475329;entryY=0.006060744776870265;rounded=0;" edge="1" parent="WIyWlLk6GJQsqaUBKTNV-1" source="E8jhZmFo8gNS69suOHck-2" target="E8jhZmFo8gNS69suOHck-3">
          <mxGeometry relative="1" as="geometry">
            <Array as="points" />
          </mxGeometry>
        </mxCell>
        <mxCell id="E8jhZmFo8gNS69suOHck-33" value="" style="curved=1;startArrow=none;endArrow=block;exitX=0.5014844392475329;exitY=1.0181820031368372;entryX=0.49847890562930347;entryY=-0.001694889391882945;rounded=0;" edge="1" parent="WIyWlLk6GJQsqaUBKTNV-1" source="E8jhZmFo8gNS69suOHck-3" target="E8jhZmFo8gNS69suOHck-4">
          <mxGeometry relative="1" as="geometry">
            <Array as="points" />
          </mxGeometry>
        </mxCell>
        <mxCell id="E8jhZmFo8gNS69suOHck-34" value="Yes" style="curved=1;startArrow=none;endArrow=block;exitX=0.06881634823297976;exitY=0.9994703389830508;entryX=0.4994516556079571;entryY=0.00833332177364465;rounded=0;" edge="1" parent="WIyWlLk6GJQsqaUBKTNV-1" source="E8jhZmFo8gNS69suOHck-4" target="E8jhZmFo8gNS69suOHck-5">
          <mxGeometry relative="1" as="geometry">
            <Array as="points">
              <mxPoint x="-264" y="-565" />
            </Array>
          </mxGeometry>
        </mxCell>
        <mxCell id="E8jhZmFo8gNS69suOHck-35" value="" style="curved=1;startArrow=none;endArrow=block;exitX=0.4994516556079571;exitY=1.0204545801336116;entryX=0.5038984279439906;entryY=-0.009848450169418797;rounded=0;" edge="1" parent="WIyWlLk6GJQsqaUBKTNV-1" source="E8jhZmFo8gNS69suOHck-5" target="E8jhZmFo8gNS69suOHck-6">
          <mxGeometry relative="1" as="geometry">
            <Array as="points" />
          </mxGeometry>
        </mxCell>
        <mxCell id="E8jhZmFo8gNS69suOHck-36" value="" style="curved=1;startArrow=none;endArrow=block;exitX=0.5038984279439906;exitY=1.002272808190548;entryX=0.49952476819356284;entryY=0.00031251112620035807;rounded=0;" edge="1" parent="WIyWlLk6GJQsqaUBKTNV-1" source="E8jhZmFo8gNS69suOHck-6" target="E8jhZmFo8gNS69suOHck-7">
          <mxGeometry relative="1" as="geometry">
            <Array as="points" />
          </mxGeometry>
        </mxCell>
        <mxCell id="E8jhZmFo8gNS69suOHck-37" value="Yes" style="curved=1;startArrow=none;endArrow=block;exitX=0.12051487023970253;exitY=1.0005208571751913;entryX=0.4966757857559511;entryY=-0.014393777558297821;rounded=0;" edge="1" parent="WIyWlLk6GJQsqaUBKTNV-1" source="E8jhZmFo8gNS69suOHck-7" target="E8jhZmFo8gNS69suOHck-8">
          <mxGeometry relative="1" as="geometry">
            <Array as="points">
              <mxPoint x="-381" y="-90" />
            </Array>
          </mxGeometry>
        </mxCell>
        <mxCell id="E8jhZmFo8gNS69suOHck-38" value="" style="curved=1;startArrow=none;endArrow=block;exitX=-0.0032822781761220636;exitY=0.8327246348377836;entryX=0.5000072408605505;entryY=-0.00011573014435944733;rounded=0;" edge="1" parent="WIyWlLk6GJQsqaUBKTNV-1" source="E8jhZmFo8gNS69suOHck-8" target="E8jhZmFo8gNS69suOHck-9">
          <mxGeometry relative="1" as="geometry">
            <Array as="points">
              <mxPoint x="-657" y="3" />
            </Array>
          </mxGeometry>
        </mxCell>
        <mxCell id="E8jhZmFo8gNS69suOHck-39" value="Yes" style="curved=1;startArrow=none;endArrow=block;exitX=0.16741768478587604;exitY=1.0012731728730377;entryX=0.49950132978723405;entryY=-0.00833332177364465;rounded=0;" edge="1" parent="WIyWlLk6GJQsqaUBKTNV-1" source="E8jhZmFo8gNS69suOHck-9" target="E8jhZmFo8gNS69suOHck-10">
          <mxGeometry relative="1" as="geometry">
            <Array as="points">
              <mxPoint x="-796" y="413" />
            </Array>
          </mxGeometry>
        </mxCell>
        <mxCell id="E8jhZmFo8gNS69suOHck-40" value="" style="curved=1;startArrow=none;endArrow=block;exitX=0.49950132978723405;exitY=1.0037879365863223;entryX=0.5031011450381679;entryY=0.0037879365863222065;rounded=0;" edge="1" parent="WIyWlLk6GJQsqaUBKTNV-1" source="E8jhZmFo8gNS69suOHck-10" target="E8jhZmFo8gNS69suOHck-11">
          <mxGeometry relative="1" as="geometry">
            <Array as="points" />
          </mxGeometry>
        </mxCell>
        <mxCell id="E8jhZmFo8gNS69suOHck-41" value="" style="curved=1;startArrow=none;endArrow=block;exitX=0.5031011450381679;exitY=1.015909194946289;entryX=0.5029653284671532;entryY=-0.014393835356741241;rounded=0;" edge="1" parent="WIyWlLk6GJQsqaUBKTNV-1" source="E8jhZmFo8gNS69suOHck-11" target="E8jhZmFo8gNS69suOHck-12">
          <mxGeometry relative="1" as="geometry">
            <Array as="points" />
          </mxGeometry>
        </mxCell>
        <mxCell id="E8jhZmFo8gNS69suOHck-42" value="" style="curved=1;startArrow=none;endArrow=block;exitX=0.5029653284671532;exitY=0.9977274230032256;entryX=0.5022199453551912;entryY=-0.0022725769967743845;rounded=0;" edge="1" parent="WIyWlLk6GJQsqaUBKTNV-1" source="E8jhZmFo8gNS69suOHck-12" target="E8jhZmFo8gNS69suOHck-13">
          <mxGeometry relative="1" as="geometry">
            <Array as="points" />
          </mxGeometry>
        </mxCell>
        <mxCell id="E8jhZmFo8gNS69suOHck-43" value="" style="curved=1;startArrow=none;endArrow=block;exitX=0.5022199453551912;exitY=1.0098486813631924;entryX=0.5021724598930482;entryY=0.009848681363192472;rounded=0;" edge="1" parent="WIyWlLk6GJQsqaUBKTNV-1" source="E8jhZmFo8gNS69suOHck-13" target="E8jhZmFo8gNS69suOHck-14">
          <mxGeometry relative="1" as="geometry">
            <Array as="points" />
          </mxGeometry>
        </mxCell>
        <mxCell id="E8jhZmFo8gNS69suOHck-44" value="" style="curved=1;startArrow=none;endArrow=block;exitX=0.5021724598930482;exitY=1.0219699397231594;entryX=0.5035326086956522;entryY=-0.008333090579870975;rounded=0;" edge="1" parent="WIyWlLk6GJQsqaUBKTNV-1" source="E8jhZmFo8gNS69suOHck-14" target="E8jhZmFo8gNS69suOHck-15">
          <mxGeometry relative="1" as="geometry">
            <Array as="points" />
          </mxGeometry>
        </mxCell>
        <mxCell id="E8jhZmFo8gNS69suOHck-45" value="" style="curved=1;startArrow=none;endArrow=block;exitX=0.5035326086956522;exitY=1.003788167780096;entryX=0.4992897727272727;entryY=0.0037881677800958805;rounded=0;" edge="1" parent="WIyWlLk6GJQsqaUBKTNV-1" source="E8jhZmFo8gNS69suOHck-15" target="E8jhZmFo8gNS69suOHck-16">
          <mxGeometry relative="1" as="geometry">
            <Array as="points" />
          </mxGeometry>
        </mxCell>
        <mxCell id="E8jhZmFo8gNS69suOHck-46" value="" style="curved=1;startArrow=none;endArrow=block;exitX=0.4992897727272727;exitY=1.0159094261400627;entryX=0.49917763157894735;entryY=-0.014393604162967566;rounded=0;" edge="1" parent="WIyWlLk6GJQsqaUBKTNV-1" source="E8jhZmFo8gNS69suOHck-16" target="E8jhZmFo8gNS69suOHck-17">
          <mxGeometry relative="1" as="geometry">
            <Array as="points" />
          </mxGeometry>
        </mxCell>
        <mxCell id="E8jhZmFo8gNS69suOHck-47" value="" style="curved=1;startArrow=none;endArrow=block;exitX=0.9966338496880244;exitY=0.8313784199218514;entryX=0.5002902003696986;entryY=-0.00021426609584263392;rounded=0;" edge="1" parent="WIyWlLk6GJQsqaUBKTNV-1" source="E8jhZmFo8gNS69suOHck-8" target="E8jhZmFo8gNS69suOHck-18">
          <mxGeometry relative="1" as="geometry">
            <Array as="points">
              <mxPoint x="-104" y="3" />
            </Array>
          </mxGeometry>
        </mxCell>
        <mxCell id="E8jhZmFo8gNS69suOHck-48" value="Yes" style="curved=1;startArrow=none;endArrow=block;exitX=0.17039698205105552;exitY=1.0009285736083984;entryX=0.5032787218771345;entryY=-0.00833332177364465;rounded=0;" edge="1" parent="WIyWlLk6GJQsqaUBKTNV-1" source="E8jhZmFo8gNS69suOHck-18" target="E8jhZmFo8gNS69suOHck-19">
          <mxGeometry relative="1" as="geometry">
            <Array as="points">
              <mxPoint x="-242" y="413" />
            </Array>
          </mxGeometry>
        </mxCell>
        <mxCell id="E8jhZmFo8gNS69suOHck-49" value="" style="curved=1;startArrow=none;endArrow=block;exitX=0.5032787218771345;exitY=1.0037879365863223;entryX=0.49779008896969956;entryY=0.0037879365863222065;rounded=0;" edge="1" parent="WIyWlLk6GJQsqaUBKTNV-1" source="E8jhZmFo8gNS69suOHck-19" target="E8jhZmFo8gNS69suOHck-20">
          <mxGeometry relative="1" as="geometry">
            <Array as="points" />
          </mxGeometry>
        </mxCell>
        <mxCell id="E8jhZmFo8gNS69suOHck-50" value="" style="curved=1;startArrow=none;endArrow=block;exitX=0.49779008896969956;exitY=1.015909194946289;entryX=0.5006024464067206;entryY=-0.014393835356741241;rounded=0;" edge="1" parent="WIyWlLk6GJQsqaUBKTNV-1" source="E8jhZmFo8gNS69suOHck-20" target="E8jhZmFo8gNS69suOHck-21">
          <mxGeometry relative="1" as="geometry">
            <Array as="points" />
          </mxGeometry>
        </mxCell>
        <mxCell id="E8jhZmFo8gNS69suOHck-51" value="" style="curved=1;startArrow=none;endArrow=block;exitX=0.5006024464067206;exitY=0.9977274230032256;entryX=0.502352965111826;entryY=-0.0022725769967743845;rounded=0;" edge="1" parent="WIyWlLk6GJQsqaUBKTNV-1" source="E8jhZmFo8gNS69suOHck-21" target="E8jhZmFo8gNS69suOHck-22">
          <mxGeometry relative="1" as="geometry">
            <Array as="points" />
          </mxGeometry>
        </mxCell>
        <mxCell id="E8jhZmFo8gNS69suOHck-52" value="" style="curved=1;startArrow=none;endArrow=block;exitX=0.502352965111826;exitY=1.0098486813631924;entryX=0.49768789655211343;entryY=0.009848681363192472;rounded=0;" edge="1" parent="WIyWlLk6GJQsqaUBKTNV-1" source="E8jhZmFo8gNS69suOHck-22" target="E8jhZmFo8gNS69suOHck-23">
          <mxGeometry relative="1" as="geometry">
            <Array as="points" />
          </mxGeometry>
        </mxCell>
        <mxCell id="E8jhZmFo8gNS69suOHck-53" value="" style="curved=1;startArrow=none;endArrow=block;exitX=0.49768789655211343;exitY=1.0219699397231594;entryX=0.5007576219963304;entryY=-0.008333090579870975;rounded=0;" edge="1" parent="WIyWlLk6GJQsqaUBKTNV-1" source="E8jhZmFo8gNS69suOHck-23" target="E8jhZmFo8gNS69suOHck-24">
          <mxGeometry relative="1" as="geometry">
            <Array as="points" />
          </mxGeometry>
        </mxCell>
        <mxCell id="E8jhZmFo8gNS69suOHck-54" value="" style="curved=1;startArrow=none;endArrow=block;exitX=0.5007576219963304;exitY=1.003788167780096;entryX=0.5008772465220669;entryY=0.0037881677800958805;rounded=0;" edge="1" parent="WIyWlLk6GJQsqaUBKTNV-1" source="E8jhZmFo8gNS69suOHck-24" target="E8jhZmFo8gNS69suOHck-25">
          <mxGeometry relative="1" as="geometry">
            <Array as="points" />
          </mxGeometry>
        </mxCell>
        <mxCell id="E8jhZmFo8gNS69suOHck-55" value="No" style="curved=1;startArrow=none;endArrow=block;exitX=0.9281414630256273;exitY=0.9994703389830508;entryX=0.49951673995616824;entryY=0.00833332177364465;rounded=0;" edge="1" parent="WIyWlLk6GJQsqaUBKTNV-1" source="E8jhZmFo8gNS69suOHck-4" target="E8jhZmFo8gNS69suOHck-26">
          <mxGeometry relative="1" as="geometry">
            <Array as="points">
              <mxPoint x="-3" y="-565" />
            </Array>
          </mxGeometry>
        </mxCell>
        <mxCell id="E8jhZmFo8gNS69suOHck-56" value="No" style="curved=1;startArrow=none;endArrow=block;exitX=0.8785346661474231;exitY=1.0005208571751913;entryX=0.5012200760514769;entryY=-0.014393777558297821;rounded=0;" edge="1" parent="WIyWlLk6GJQsqaUBKTNV-1" source="E8jhZmFo8gNS69suOHck-7" target="E8jhZmFo8gNS69suOHck-27">
          <mxGeometry relative="1" as="geometry">
            <Array as="points">
              <mxPoint x="-147" y="-90" />
            </Array>
          </mxGeometry>
        </mxCell>
        <mxCell id="E8jhZmFo8gNS69suOHck-57" value="No" style="curved=1;startArrow=none;endArrow=block;exitX=0.8325967969352248;exitY=1.0012731728730377;entryX=0.4985014053968692;entryY=-0.00833332177364465;rounded=0;" edge="1" parent="WIyWlLk6GJQsqaUBKTNV-1" source="E8jhZmFo8gNS69suOHck-9" target="E8jhZmFo8gNS69suOHck-28">
          <mxGeometry relative="1" as="geometry">
            <Array as="points">
              <mxPoint x="-518" y="413" />
            </Array>
          </mxGeometry>
        </mxCell>
        <mxCell id="E8jhZmFo8gNS69suOHck-58" value="No" style="curved=1;startArrow=none;endArrow=block;exitX=0.8301834186883418;exitY=1.0009285736083984;entryX=0.49852466228726183;entryY=-0.00833332177364465;rounded=0;" edge="1" parent="WIyWlLk6GJQsqaUBKTNV-1" source="E8jhZmFo8gNS69suOHck-18" target="E8jhZmFo8gNS69suOHck-29">
          <mxGeometry relative="1" as="geometry">
            <Array as="points">
              <mxPoint x="34" y="413" />
            </Array>
          </mxGeometry>
        </mxCell>
      </root>
    </mxGraphModel>
  </diagram>
</mxfile>
